<svg width="25" height="24" fill="none" xmlns="http://www.w3.org/2000/svg"><g clip-path="url(#a)"><path fill-rule="evenodd" clip-rule="evenodd" d="M24 11.57C24 5.18 18.852 0 12.501 0 6.148.001 1 5.18 1 11.572 1 17.346 5.206 22.132 10.702 23v-8.085H7.784v-3.343h2.92V9.02c0-2.9 1.718-4.5 4.344-4.5 1.26 0 2.575.225 2.575.225v2.846h-1.45c-1.428 0-1.873.893-1.873 1.808v2.17h3.188l-.51 3.344h-2.68v8.085C19.794 22.13 24 17.344 24 11.57Z" fill="#1BA0AB"/></g><defs><clipPath id="a"><path fill="#fff" transform="translate(.5)" d="M0 0h24v24H0z"/></clipPath></defs></svg>