<svg width="51" height="26" viewBox="0 0 51 26" fill="none" xmlns="http://www.w3.org/2000/svg">
<path d="M0.5 13C0.5 5.8203 6.3203 0 13.5 0H37.5C44.6797 0 50.5 5.8203 50.5 13C50.5 20.1797 44.6797 26 37.5 26H13.5C6.3203 26 0.5 20.1797 0.5 13Z" fill="#26335D"/>
<path d="M21 11.3H15.275L13.5 5.75L11.725 11.3H6L10.625 14.725L8.875 20.25L13.5 16.825L18.125 20.25L16.35 14.7L21 11.3Z" fill="#FFCE31"/>
<path d="M30.544 13.604V12.068H31.888V13.604H32.896V14.888H31.888V17H30.544V14.888H26.944V13.64L30.028 8.612H31.576L28.54 13.604H30.544ZM34.6112 16.832C34.4432 16.656 34.3592 16.444 34.3592 16.196C34.3592 15.948 34.4432 15.74 34.6112 15.572C34.7872 15.396 34.9992 15.308 35.2472 15.308C35.4952 15.308 35.7072 15.396 35.8832 15.572C36.0592 15.74 36.1472 15.948 36.1472 16.196C36.1472 16.444 36.0592 16.656 35.8832 16.832C35.7072 17.008 35.4952 17.096 35.2472 17.096C34.9992 17.096 34.7872 17.008 34.6112 16.832ZM40.3225 15.824C41.0665 15.824 41.6145 15.572 41.9665 15.068C42.3185 14.564 42.4985 13.884 42.5065 13.028C42.3065 13.252 42.0185 13.464 41.6425 13.664C41.2665 13.856 40.8505 13.952 40.3945 13.952C39.6425 13.952 39.0105 13.704 38.4985 13.208C37.9945 12.704 37.7425 12.04 37.7425 11.216C37.7425 10.384 38.0145 9.716 38.5585 9.212C39.1105 8.708 39.8025 8.456 40.6345 8.456C41.9785 8.456 42.9065 9.056 43.4185 10.256C43.7065 10.944 43.8505 11.72 43.8505 12.584C43.8505 13.448 43.7585 14.168 43.5745 14.744C43.3905 15.32 43.1385 15.776 42.8185 16.112C42.1945 16.768 41.4265 17.096 40.5145 17.096C39.6105 17.096 38.7905 16.812 38.0545 16.244L38.7625 15.2C38.9465 15.36 39.1905 15.504 39.4945 15.632C39.8065 15.76 40.0825 15.824 40.3225 15.824ZM40.5745 12.704C41.0625 12.704 41.4665 12.572 41.7865 12.308C42.1145 12.036 42.2785 11.688 42.2785 11.264C42.2785 10.832 42.1225 10.464 41.8105 10.16C41.4985 9.848 41.1065 9.692 40.6345 9.692C40.1705 9.692 39.7865 9.832 39.4825 10.112C39.1785 10.384 39.0265 10.736 39.0265 11.168C39.0265 11.6 39.1625 11.964 39.4345 12.26C39.7145 12.556 40.0945 12.704 40.5745 12.704Z" fill="white"/>
</svg>
