<svg width="17" height="16" viewBox="0 0 17 16" fill="none" xmlns="http://www.w3.org/2000/svg">
<g clip-path="url(#clip0_2_242)">
<path d="M1 9.90039C1.13261 9.90039 1.25979 9.95307 1.35355 10.0468C1.44732 10.1406 1.5 10.2678 1.5 10.4004V12.9004C1.5 13.1656 1.60536 13.42 1.79289 13.6075C1.98043 13.795 2.23478 13.9004 2.5 13.9004H14.5C14.7652 13.9004 15.0196 13.795 15.2071 13.6075C15.3946 13.42 15.5 13.1656 15.5 12.9004V10.4004C15.5 10.2678 15.5527 10.1406 15.6464 10.0468C15.7402 9.95307 15.8674 9.90039 16 9.90039C16.1326 9.90039 16.2598 9.95307 16.3536 10.0468C16.4473 10.1406 16.5 10.2678 16.5 10.4004V12.9004C16.5 13.4308 16.2893 13.9395 15.9142 14.3146C15.5391 14.6897 15.0304 14.9004 14.5 14.9004H2.5C1.96957 14.9004 1.46086 14.6897 1.08579 14.3146C0.710714 13.9395 0.5 13.4308 0.5 12.9004V10.4004C0.5 10.2678 0.552678 10.1406 0.646447 10.0468C0.740215 9.95307 0.867392 9.90039 1 9.90039Z" fill="#737373"/>
<path d="M8.14602 11.854C8.19247 11.9006 8.24764 11.9375 8.30839 11.9627C8.36913 11.9879 8.43425 12.0009 8.50002 12.0009C8.56579 12.0009 8.63091 11.9879 8.69165 11.9627C8.7524 11.9375 8.80758 11.9006 8.85402 11.854L11.854 8.854C11.9479 8.76011 12.0007 8.63278 12.0007 8.5C12.0007 8.36722 11.9479 8.23989 11.854 8.146C11.7601 8.05211 11.6328 7.99937 11.5 7.99937C11.3672 7.99937 11.2399 8.05211 11.146 8.146L9.00002 10.293V1.5C9.00002 1.36739 8.94734 1.24021 8.85358 1.14645C8.75981 1.05268 8.63263 1 8.50002 1C8.36741 1 8.24024 1.05268 8.14647 1.14645C8.0527 1.24021 8.00002 1.36739 8.00002 1.5V10.293L5.85402 8.146C5.76013 8.05211 5.6328 7.99937 5.50002 7.99937C5.36725 7.99937 5.23991 8.05211 5.14602 8.146C5.05213 8.23989 4.99939 8.36722 4.99939 8.5C4.99939 8.63278 5.05213 8.76011 5.14602 8.854L8.14602 11.854Z" fill="#737373"/>
</g>
<defs>
<clipPath id="clip0_2_242">
<rect width="16" height="16" fill="white" transform="translate(0.5)"/>
</clipPath>
</defs>
</svg>
