<svg width="12" height="10" fill="none" xmlns="http://www.w3.org/2000/svg"><path fill-rule="evenodd" clip-rule="evenodd" d="M0 5c0-.19.079-.371.22-.505a.77.77 0 0 1 .53-.21h8.688l-3.22-3.064a.698.698 0 0 1-.22-.506c0-.19.08-.371.22-.506A.77.77 0 0 1 6.75 0c.2 0 .39.075.531.21l4.5 4.284A.713.713 0 0 1 12 5a.685.685 0 0 1-.22.506L7.28 9.79a.77.77 0 0 1-.53.209.77.77 0 0 1-.532-.21.698.698 0 0 1-.22-.505c0-.19.08-.372.22-.506l3.22-3.065H.75a.77.77 0 0 1-.53-.209A.697.697 0 0 1 0 5Z" fill="#fff"/></svg>