<svg width="32" height="32" viewBox="0 0 32 32" fill="none" xmlns="http://www.w3.org/2000/svg">
<g clip-path="url(#clip0_2_630)">
<g clip-path="url(#clip1_2_630)">
<g clip-path="url(#clip2_2_630)">
<path d="M10.6705 16.3356C11.0644 16.254 11.4761 16.0753 11.8644 15.7949C12.981 14.9872 13.4766 13.661 12.9702 12.8312C12.4196 11.9286 10.9134 11.9893 9.75601 13.0165C8.64922 13.9722 8.41309 14.9707 8.41309 16.0201C8.41309 16.7616 8.65025 18.0856 10.099 19.2354C10.7831 18.7069 11.5986 18.2721 12.5243 17.9577L12.5365 17.9532C11.8253 17.6568 10.8981 17.0718 10.6705 16.3356ZM10.4918 13.7834C10.4918 13.4733 10.7389 13.224 11.0436 13.224C11.348 13.224 11.5953 13.4745 11.5953 13.7846C11.5953 14.0946 11.348 14.3439 11.0436 14.3439C10.7389 14.3439 10.4918 14.0935 10.4918 13.7834Z" fill="white"/>
</g>
</g>
<g clip-path="url(#clip3_2_630)">
<g clip-path="url(#clip4_2_630)">
<path d="M23.607 16.0213C23.6036 14.9708 23.3686 13.9723 22.2609 13.0166C21.1043 11.9905 19.5971 11.9276 19.0465 12.8313C18.5411 13.6611 19.0354 14.9874 20.152 15.795C20.5405 16.0754 20.9521 16.2541 21.346 16.3357C21.2092 16.7782 20.7932 17.2284 20.1588 17.6079C19.2864 18.1286 18.8152 18.193 13.2336 20.0465C11.1681 20.7482 9.93896 22.1429 9.93896 23.7771C9.93896 24.9412 10.5336 25.8394 11.36 26.4971C11.8798 25.9619 12.5287 25.4974 13.2867 25.1255C12.4139 24.6842 12.1446 24.3498 12.1446 23.7771C12.1446 22.8319 14.0339 22.2915 14.9055 22.0039V24.3962L17.1123 23.4119V22.005C17.9853 22.2941 19.8698 22.8338 19.8698 23.7771C19.8698 25.3464 15.3762 26.2718 13.4644 27.5905C12.5365 28.2338 12.0375 29.0515 12.0375 30.0125C12.0375 30.5642 12.1017 31.2483 13.0704 31.928C13.3451 32.1475 13.7267 31.8269 13.5483 31.5186C12.9082 30.2375 13.5879 29.5976 14.9076 29.0436V30.8952C14.9076 31.5042 15.402 31.9986 16.0111 31.9986C16.6201 31.9986 17.1145 31.5042 17.1145 30.8952V29.0447C18.3822 29.5766 19.1801 30.328 18.4706 31.5186C18.2947 31.821 18.6692 32.1502 18.9472 31.928C19.8851 31.2174 19.9591 30.6083 19.9591 30.0268C19.9591 29.132 19.4692 28.2637 18.5401 27.5982C20.4182 26.9196 22.0798 25.7776 22.0798 23.7793C22.0798 22.399 21.2028 21.1896 19.6866 20.4238C20.3948 20.169 20.7512 19.9979 21.2246 19.7155C23.298 18.4763 23.607 16.8687 23.607 16.0213ZM20.9743 14.344C20.6696 14.344 20.4226 14.0936 20.4226 13.7835C20.4226 13.4734 20.6696 13.223 20.9743 13.223C21.2787 13.223 21.526 13.4734 21.526 13.7835C21.526 14.0936 21.2787 14.344 20.9743 14.344Z" fill="white"/>
</g>
</g>
<g clip-path="url(#clip5_2_630)">
<g clip-path="url(#clip6_2_630)">
<path d="M31.4477 2.20896H23.891C22.4085 2.20896 21.2961 2.86425 20.3391 3.82132C19.2994 4.86101 18.7588 7.17218 17.1033 7.17218V4.10759C17.7603 3.72533 18.2067 3.0217 18.2067 2.20683C18.2067 0.988037 17.2188 0 15.9999 0C14.7811 0 13.7931 0.988037 13.7931 2.20683C13.7931 3.02163 14.2396 3.72526 14.8965 4.10759V17.2579C15.5775 17.0406 16.3249 16.8012 17.1033 16.5513V11.0242C17.5821 10.784 17.9683 10.3957 18.2052 9.91506C18.589 10.571 19.3186 11.0363 20.1319 11.0363C20.9568 11.0363 21.6674 10.5783 22.0461 9.90802C23.3387 11.2007 25.7414 11.2256 27.034 9.93299L25.1589 8.05788L26.0191 8.41421C27.7081 9.11384 29.6445 8.31173 30.3443 6.62268L27.6804 5.51927C30.261 5.5192 31.4477 3.89987 31.4477 2.20896Z" fill="white"/>
</g>
</g>
<g clip-path="url(#clip7_2_630)">
<g clip-path="url(#clip8_2_630)">
<path d="M11.6607 3.82135C10.7037 2.86427 9.59128 2.20898 8.10884 2.20898H0.552124C0.552124 3.89983 1.73878 5.51922 4.31938 5.51922L1.65554 6.62263C2.35524 8.31168 4.29166 9.11373 5.98071 8.41416L6.84089 8.05783L4.96577 9.93294C6.25842 11.2257 8.6611 11.2008 9.95375 9.90798C10.3324 10.5783 11.043 11.0363 11.8679 11.0363C11.876 11.0363 11.8842 11.0362 11.8923 11.0361C12.9705 11.0239 13.7946 10.05 13.7946 8.9718V6.75187C12.9249 6.03831 12.4268 4.58739 11.6607 3.82135Z" fill="white"/>
</g>
</g>
</g>
<defs>
<clipPath id="clip0_2_630">
<rect width="32" height="32" fill="white"/>
</clipPath>
<clipPath id="clip1_2_630">
<rect width="4.75568" height="7.03818" fill="white" transform="translate(8.41309 12.1973)"/>
</clipPath>
<clipPath id="clip2_2_630">
<rect width="4.75568" height="7.03818" fill="white" transform="translate(8.41309 12.1973)"/>
</clipPath>
<clipPath id="clip3_2_630">
<rect width="13.668" height="19.8036" fill="white" transform="translate(9.93896 12.1973)"/>
</clipPath>
<clipPath id="clip4_2_630">
<rect width="13.668" height="19.8036" fill="white" transform="translate(9.93896 12.1973)"/>
</clipPath>
<clipPath id="clip5_2_630">
<rect width="17.6546" height="17.2579" fill="white" transform="translate(13.7931)"/>
</clipPath>
<clipPath id="clip6_2_630">
<rect width="17.6546" height="17.2579" fill="white" transform="translate(13.7931)"/>
</clipPath>
<clipPath id="clip7_2_630">
<rect width="13.2425" height="8.8273" fill="white" transform="translate(0.552124 2.20898)"/>
</clipPath>
<clipPath id="clip8_2_630">
<rect width="13.2425" height="8.8273" fill="white" transform="translate(0.552124 2.20898)"/>
</clipPath>
</defs>
</svg>
