<svg width="32" height="32" viewBox="0 0 32 32" fill="none" xmlns="http://www.w3.org/2000/svg">
<g clip-path="url(#clip0_2_625)">
<g clip-path="url(#clip1_2_625)">
<path d="M15.9909 4.218C9.01587 -1.88266 0.14723 3.47755 0.00180337 10.7442C-0.0352563 12.5961 0.499328 14.4 1.56343 16.0631H8.46066L9.68744 14.0184C10.0437 13.4247 10.9057 13.4056 11.2821 13.9974L13.8705 18.0648L17.6435 10.0997C17.9726 9.40473 18.9532 9.38267 19.3161 10.0566L22.5503 16.0631H30.4184C36.2468 6.95379 24.7279 -3.42361 15.9909 4.218V4.218Z" fill="white"/>
<path d="M21.1651 17.4453L18.5443 12.5781L14.8382 20.4019C14.5229 21.0675 13.5956 21.1253 13.2002 20.5039L10.5148 16.284L9.79525 17.4832C9.62582 17.7655 9.32072 17.9383 8.99143 17.9383H3.04639C3.23275 18.1333 2.23951 17.1421 15.3297 30.1645C15.6953 30.5283 16.2863 30.5283 16.652 30.1645C29.5407 17.3424 28.7493 18.133 28.9353 17.9383H21.9904C21.6455 17.9383 21.3286 17.749 21.1651 17.4453V17.4453Z" fill="white"/>
</g>
</g>
<defs>
<clipPath id="clip0_2_625">
<rect width="32" height="32" fill="white"/>
</clipPath>
<clipPath id="clip1_2_625">
<rect width="32" height="28.8744" fill="white" transform="translate(0 1.5625)"/>
</clipPath>
</defs>
</svg>
