<svg width="16" height="16" fill="none" xmlns="http://www.w3.org/2000/svg"><path d="m15 3.307-.658.219A10.46 10.46 0 0 1 11.5 4c-.867 0-1.661-.454-2.502-.934C8.081 2.542 7.133 2 6 2 4.561 2 2.958 3.103 2 3.886V1H1v13a1.001 1.001 0 0 0 1 1h13V3.307Zm-13 6.84C2.937 8.688 4.78 6.5 6 6.5c.819 0 1.48.551 2.18 1.135C8.948 8.274 9.819 9 11 9a4.735 4.735 0 0 0 3-1.264v2.478c-.922.5-1.951.77-3 .786a6.93 6.93 0 0 1-2.342-.475A7.84 7.84 0 0 0 6 10c-1.463 0-3.034 1.48-4 2.579v-2.432ZM6 3c.867 0 1.661.454 2.502.934C9.419 4.458 10.367 5 11.5 5a10.716 10.716 0 0 0 2.5-.339v1.66C13.659 6.724 12.458 8 11 8c-.819 0-1.48-.551-2.18-1.135C8.052 6.226 7.181 5.5 6 5.5c-1.468 0-3.031 1.67-4 2.922v-3.21C2.773 4.483 4.63 3 6 3ZM2.124 14c.807-1.046 2.581-3 3.876-3a6.93 6.93 0 0 1 2.342.475A7.84 7.84 0 0 0 11 12a7.367 7.367 0 0 0 3-.67V14H2.124Z" fill="#E77C40"/></svg>