<svg width="16" height="16" viewBox="0 0 16 16" fill="none" xmlns="http://www.w3.org/2000/svg">
<path d="M15 3.307L14.3425 3.5255C13.4214 3.81404 12.4649 3.97373 11.5 4C10.633 4 9.839 3.5465 8.998 3.066C8.081 2.542 7.133 2 6 2C4.5615 2 2.9575 3.103 2 3.886V1H1V14C1.00026 14.2651 1.10571 14.5193 1.29319 14.7068C1.48066 14.8943 1.73486 14.9997 2 15H15V3.307ZM2 10.147C2.937 8.688 4.78 6.5 6 6.5C6.819 6.5 7.48 7.051 8.18 7.6345C8.9485 8.2745 9.819 9 11 9C12.118 8.94638 13.1809 8.49837 14 7.7355V10.2135C13.0781 10.7138 12.0488 10.9837 11 11C10.1978 10.9786 9.40531 10.8181 8.658 10.5255C7.80921 10.1974 6.90978 10.0196 6 10C4.5365 10 2.966 11.4795 2 12.579V10.147ZM6 3C6.867 3 7.661 3.4535 8.502 3.934C9.419 4.458 10.367 5 11.5 5C12.3438 4.98583 13.1829 4.87204 14 4.661V6.3215C13.6585 6.723 12.458 8 11 8C10.181 8 9.52 7.449 8.82 6.8655C8.0515 6.2255 7.181 5.5 6 5.5C4.532 5.5 2.9685 7.17 2 8.4225V5.212C2.773 4.483 4.6295 3 6 3ZM2.1245 14C2.931 12.9545 4.705 11 6 11C6.80225 11.0214 7.59469 11.1819 8.342 11.4745C9.19079 11.8026 10.0902 11.9804 11 12C12.036 11.9901 13.0582 11.7618 14 11.33V14H2.1245Z" fill="#E77C40"/>
</svg>
