<svg width="17" height="16" viewBox="0 0 17 16" fill="none" xmlns="http://www.w3.org/2000/svg">
<g clip-path="url(#clip0_2_260)">
<path d="M16.3333 13.8327H2V0.832682C2 0.741016 1.925 0.666016 1.83333 0.666016H0.666667C0.575 0.666016 0.5 0.741016 0.5 0.832682V15.166C0.5 15.2577 0.575 15.3327 0.666667 15.3327H16.3333C16.425 15.3327 16.5 15.2577 16.5 15.166V13.9993C16.5 13.9077 16.425 13.8327 16.3333 13.8327ZM3.5 12.4993H14.6667C14.7583 12.4993 14.8333 12.4243 14.8333 12.3327V3.24935C14.8333 3.09935 14.6521 3.02643 14.5479 3.1306L10.1667 7.51185L7.55417 4.92852C7.52284 4.8975 7.48054 4.8801 7.43646 4.8801C7.39238 4.8801 7.35007 4.8975 7.31875 4.92852L3.38125 8.87852C3.36596 8.89384 3.35385 8.91203 3.34562 8.93206C3.3374 8.95208 3.33322 8.97354 3.33333 8.99518V12.3327C3.33333 12.4243 3.40833 12.4993 3.5 12.4993Z" fill="#F69B25"/>
</g>
<defs>
<clipPath id="clip0_2_260">
<rect width="16" height="14.6667" fill="white" transform="translate(0.5 0.666016)"/>
</clipPath>
</defs>
</svg>
