<svg width="17" height="16" fill="none" xmlns="http://www.w3.org/2000/svg"><g clip-path="url(#a)"><path d="M16.333 13.833H2v-13a.167.167 0 0 0-.167-.167H.667A.167.167 0 0 0 .5.833v14.333c0 .092.075.167.167.167h15.666a.167.167 0 0 0 .167-.167v-1.167a.167.167 0 0 0-.167-.166ZM3.5 12.499h11.167a.167.167 0 0 0 .166-.166V3.249a.167.167 0 0 0-.285-.118l-4.381 4.38L7.554 4.93a.167.167 0 0 0-.235 0L3.38 8.879a.164.164 0 0 0-.048.116v3.338c0 .091.075.166.167.166Z" fill="#F69B25"/></g><defs><clipPath id="a"><path fill="#fff" transform="translate(.5 .666)" d="M0 0h16v14.667H0z"/></clipPath></defs></svg>