<svg width="24" height="30" fill="none" xmlns="http://www.w3.org/2000/svg"><path d="M12 18c3.309 0 6-2.691 6-6 0-3.31-2.691-6-6-6s-6 2.69-6 6c0 3.309 2.691 6 6 6Zm0-9c1.655 0 3 1.345 3 3 0 1.654-1.345 3-3 3s-3-1.346-3-3c0-1.655 1.345-3 3-3Zm-.87 20.72a1.497 1.497 0 0 0 1.74 0C13.326 29.399 24.043 21.66 24 12c0-6.617-5.384-12-12-12S0 5.383 0 11.992c-.043 9.668 10.674 17.406 11.13 17.729ZM12 3c4.963 0 9 4.036 9 9.007.031 6.657-6.582 12.635-9 14.595C9.584 24.64 2.969 18.662 3 12c0-4.964 4.037-9 9-9Z" fill="#1BA0AB"/><path d="M12 18c3.309 0 6-2.691 6-6 0-3.31-2.691-6-6-6s-6 2.69-6 6c0 3.309 2.691 6 6 6Zm0-9c1.655 0 3 1.345 3 3 0 1.654-1.345 3-3 3s-3-1.346-3-3c0-1.655 1.345-3 3-3Zm-.87 20.72a1.497 1.497 0 0 0 1.74 0C13.326 29.399 24.043 21.66 24 12c0-6.617-5.384-12-12-12S0 5.383 0 11.992c-.043 9.668 10.674 17.406 11.13 17.729ZM12 3c4.963 0 9 4.036 9 9.007.031 6.657-6.582 12.635-9 14.595C9.584 24.64 2.969 18.662 3 12c0-4.964 4.037-9 9-9Z" fill="#1BA0AB"/></svg>