<svg width="17" height="16" fill="none" xmlns="http://www.w3.org/2000/svg"><g clip-path="url(#a)" fill="#737373"><path d="M1 9.9a.5.5 0 0 1 .5.5v2.5a1 1 0 0 0 1 1h12a1 1 0 0 0 1-1v-2.5a.5.5 0 0 1 1 0v2.5a2 2 0 0 1-2 2h-12a2 2 0 0 1-2-2v-2.5a.5.5 0 0 1 .5-.5Z"/><path d="M8.146 11.854a.5.5 0 0 0 .708 0l3-3a.5.5 0 1 0-.708-.708L9 10.293V1.5a.5.5 0 1 0-1 0v8.793L5.854 8.146a.5.5 0 1 0-.708.708l3 3Z"/></g><defs><clipPath id="a"><path fill="#fff" transform="translate(.5)" d="M0 0h16v16H0z"/></clipPath></defs></svg>