<svg width="158" height="20" fill="none" xmlns="http://www.w3.org/2000/svg"><path d="m15.088 8.44-4.536 9.168H8.32L3.808 8.44V19H.064V2.224h5.064l4.32 9.216 4.344-9.216h5.04V19h-3.744V8.44Zm18.798 8.688c-1.456 1.376-3.168 2.064-5.136 2.064-1.952 0-3.568-.6-4.848-1.8-1.28-1.216-1.92-2.84-1.92-4.872s.648-3.648 1.944-4.848c1.312-1.2 2.856-1.8 4.632-1.8 1.776 0 3.28.536 4.512 1.608 1.248 1.072 1.872 2.544 1.872 4.416v1.92h-9.408c.112.704.48 1.28 1.104 1.728a3.533 3.533 0 0 0 2.112.672c1.264 0 2.304-.424 3.12-1.272l2.016 2.184Zm-2.592-5.88c-.08-.768-.368-1.36-.864-1.776-.496-.416-1.104-.624-1.824-.624-.704 0-1.352.216-1.944.648a2.478 2.478 0 0 0-1.032 1.752h5.664Zm11.504 7.944c-1.52 0-2.88-.648-4.08-1.944-1.2-1.296-1.8-2.904-1.8-4.824s.584-3.488 1.752-4.704c1.168-1.232 2.536-1.848 4.104-1.848s2.848.552 3.84 1.656V1.192h3.6V19h-3.6v-1.704c-1.008 1.264-2.28 1.896-3.816 1.896Zm-2.256-6.624c0 1.04.312 1.896.936 2.568.624.656 1.352.984 2.184.984.832 0 1.536-.328 2.112-.984.592-.672.888-1.528.888-2.568 0-1.056-.296-1.928-.888-2.616-.576-.704-1.288-1.056-2.136-1.056-.848 0-1.576.352-2.184 1.056-.608.704-.912 1.576-.912 2.616ZM57.322 19h-3.6V6.088h3.6V19ZM54.012 4.456c-.4-.416-.6-.92-.6-1.512s.2-1.088.6-1.488a2.06 2.06 0 0 1 1.512-.624c.592 0 1.088.208 1.488.624.416.4.624.896.624 1.488a2.06 2.06 0 0 1-.624 1.512c-.4.4-.896.6-1.488.6s-1.096-.2-1.512-.6ZM67.023 16c1.2 0 2.28-.6 3.24-1.8l2.136 2.4c-1.664 1.728-3.464 2.592-5.4 2.592-1.936 0-3.576-.608-4.92-1.824-1.328-1.232-1.992-2.832-1.992-4.8 0-1.984.672-3.592 2.016-4.824 1.36-1.248 2.968-1.872 4.824-1.872.928 0 1.864.192 2.808.576.96.384 1.8.952 2.52 1.704L70.383 10.6a4.229 4.229 0 0 0-1.536-1.152 4.223 4.223 0 0 0-1.776-.408c-.944 0-1.76.312-2.448.936-.672.608-1.008 1.464-1.008 2.568 0 1.088.336 1.936 1.008 2.544a3.513 3.513 0 0 0 2.4.912Zm18.844 3h-3.384v-1.56c-.928 1.168-2.08 1.752-3.456 1.752-1.36 0-2.504-.392-3.432-1.176-.928-.8-1.392-1.856-1.392-3.168 0-1.328.48-2.32 1.44-2.976.96-.656 2.272-.984 3.936-.984h2.688v-.072c0-1.376-.728-2.064-2.184-2.064-.624 0-1.288.128-1.992.384-.688.24-1.272.544-1.752.912L74.731 7.72c1.696-1.232 3.632-1.848 5.808-1.848 1.568 0 2.848.392 3.84 1.176.992.784 1.488 2.024 1.488 3.72V19Zm-3.624-4.92v-.624h-2.256c-1.44 0-2.16.448-2.16 1.344 0 .464.168.824.504 1.08.352.24.848.36 1.488.36s1.2-.192 1.68-.576c.496-.4.744-.928.744-1.584ZM92.85 19h-3.6V1.192h3.6V19Zm18-3.312c1.84 0 3.344-.728 4.512-2.184l2.4 2.472c-1.904 2.144-4.152 3.216-6.744 3.216-2.576 0-4.704-.816-6.384-2.448-1.664-1.632-2.496-3.688-2.496-6.168 0-2.496.848-4.576 2.544-6.24 1.712-1.664 3.8-2.496 6.264-2.496 2.752 0 5.056 1.048 6.912 3.144l-2.328 2.64c-1.184-1.472-2.656-2.208-4.416-2.208-1.408 0-2.616.464-3.624 1.392-.992.912-1.488 2.152-1.488 3.72 0 1.552.472 2.8 1.416 3.744.944.944 2.088 1.416 3.432 1.416Zm11.979-3.144c0 1.056.296 1.92.888 2.592.608.656 1.376.984 2.304.984.944 0 1.712-.328 2.304-.984.608-.672.912-1.536.912-2.592s-.304-1.92-.912-2.592c-.592-.672-1.36-1.008-2.304-1.008-.928 0-1.696.336-2.304 1.008-.592.672-.888 1.536-.888 2.592Zm10.032 0c0 1.872-.648 3.448-1.944 4.728-1.296 1.28-2.928 1.92-4.896 1.92-1.952 0-3.576-.64-4.872-1.92-1.296-1.28-1.944-2.856-1.944-4.728 0-1.872.648-3.448 1.944-4.728 1.296-1.296 2.92-1.944 4.872-1.944 1.968 0 3.6.648 4.896 1.944 1.296 1.28 1.944 2.856 1.944 4.728Zm9.566-3.288c-1.072 0-1.872.384-2.4 1.152-.528.752-.792 1.752-.792 3V19h-3.6V6.088h3.6v1.704a6.1 6.1 0 0 1 1.728-1.344c.704-.368 1.416-.56 2.136-.576l.024 3.384h-.696Zm14.359 7.872c-1.456 1.376-3.168 2.064-5.136 2.064-1.952 0-3.568-.6-4.848-1.8-1.28-1.216-1.92-2.84-1.92-4.872s.648-3.648 1.944-4.848c1.312-1.2 2.856-1.8 4.632-1.8 1.776 0 3.28.536 4.512 1.608 1.248 1.072 1.872 2.544 1.872 4.416v1.92h-9.408c.112.704.48 1.28 1.104 1.728a3.533 3.533 0 0 0 2.112.672c1.264 0 2.304-.424 3.12-1.272l2.016 2.184Zm-2.592-5.88c-.08-.768-.368-1.36-.864-1.776-.496-.416-1.104-.624-1.824-.624-.704 0-1.352.216-1.944.648a2.478 2.478 0 0 0-1.032 1.752h5.664Z" fill="#252B42"/></svg>