<svg width="132" height="23" viewBox="0 0 132 23" fill="none" xmlns="http://www.w3.org/2000/svg">
<g clip-path="url(#clip0_2_385)">
<path d="M21.0967 8.41866C21.039 8.24885 20.9329 8.09964 20.7914 7.98945C20.6499 7.87926 20.4793 7.81292 20.3005 7.79861L15.0714 7.3831L12.8086 2.37409C12.7365 2.21276 12.6193 2.07573 12.4711 1.97955C12.3228 1.88336 12.15 1.83213 11.9733 1.83203C11.7966 1.83193 11.6236 1.88298 11.4753 1.979C11.327 2.07502 11.2096 2.21192 11.1374 2.37317L8.87455 7.3831L3.64539 7.79861C3.4697 7.81253 3.30174 7.87677 3.1616 7.98364C3.02147 8.09052 2.91509 8.23551 2.85519 8.40126C2.7953 8.56701 2.78442 8.74651 2.82387 8.91828C2.86332 9.09005 2.95142 9.24682 3.07763 9.36983L6.94193 13.1369L5.57526 19.0549C5.53376 19.234 5.54706 19.4215 5.61343 19.593C5.6798 19.7645 5.79618 19.9121 5.94747 20.0166C6.09876 20.1211 6.27797 20.1777 6.46184 20.1791C6.64571 20.1805 6.82576 20.1266 6.97862 20.0244L11.973 16.6949L16.9673 20.0244C17.1235 20.1282 17.3078 20.1816 17.4953 20.1774C17.6828 20.1733 17.8645 20.1119 18.0161 20.0014C18.1676 19.8909 18.2817 19.7367 18.3429 19.5595C18.4042 19.3822 18.4097 19.1904 18.3587 19.01L16.6811 13.1397L20.8417 9.39551C21.1141 9.1497 21.2141 8.76629 21.0967 8.41866Z" fill="#F3CD03"/>
<path d="M48.1116 8.41866C48.054 8.24885 47.9479 8.09964 47.8064 7.98945C47.6649 7.87926 47.4942 7.81292 47.3155 7.79861L42.0863 7.3831L39.8235 2.37409C39.7515 2.21276 39.6342 2.07573 39.486 1.97955C39.3378 1.88336 39.1649 1.83213 38.9882 1.83203C38.8115 1.83193 38.6386 1.88298 38.4902 1.979C38.3419 2.07502 38.2246 2.21192 38.1523 2.37317L35.8895 7.3831L30.6603 7.79861C30.4847 7.81253 30.3167 7.87677 30.1766 7.98364C30.0364 8.09052 29.93 8.23551 29.8701 8.40126C29.8102 8.56701 29.7994 8.74651 29.8388 8.91828C29.8783 9.09005 29.9664 9.24682 30.0926 9.36983L33.9569 13.1369L32.5902 19.0549C32.5487 19.234 32.562 19.4215 32.6284 19.593C32.6948 19.7645 32.8111 19.9121 32.9624 20.0166C33.1137 20.1211 33.2929 20.1777 33.4768 20.1791C33.6607 20.1805 33.8407 20.1266 33.9936 20.0244L38.9879 16.6949L43.9823 20.0244C44.1385 20.1282 44.3228 20.1816 44.5102 20.1774C44.6977 20.1733 44.8795 20.1119 45.031 20.0014C45.1826 19.8909 45.2966 19.7367 45.3579 19.5595C45.4192 19.3822 45.4247 19.1904 45.3737 19.01L43.6961 13.1397L47.8567 9.39551C48.1291 9.1497 48.2291 8.76629 48.1116 8.41866Z" fill="#F3CD03"/>
<path d="M75.1226 8.41866C75.065 8.24885 74.9589 8.09964 74.8174 7.98945C74.6759 7.87926 74.5052 7.81292 74.3265 7.79861L69.0973 7.3831L66.8345 2.37409C66.7624 2.21276 66.6452 2.07573 66.497 1.97955C66.3488 1.88336 66.1759 1.83213 65.9992 1.83203C65.8225 1.83193 65.6496 1.88298 65.5012 1.979C65.3529 2.07502 65.2355 2.21192 65.1633 2.37317L62.9005 7.3831L57.6713 7.79861C57.4956 7.81253 57.3277 7.87677 57.1875 7.98364C57.0474 8.09052 56.941 8.23551 56.8811 8.40126C56.8212 8.56701 56.8104 8.74651 56.8498 8.91828C56.8893 9.09005 56.9774 9.24682 57.1036 9.36983L60.9679 13.1369L59.6012 19.0549C59.5597 19.234 59.573 19.4215 59.6394 19.593C59.7057 19.7645 59.8221 19.9121 59.9734 20.0166C60.1247 20.1211 60.3039 20.1777 60.4878 20.1791C60.6717 20.1805 60.8517 20.1266 61.0046 20.0244L65.9989 16.6949L70.9932 20.0244C71.1495 20.1282 71.3337 20.1816 71.5212 20.1774C71.7087 20.1733 71.8905 20.1119 72.042 20.0014C72.1935 19.8909 72.3076 19.7367 72.3689 19.5595C72.4301 19.3822 72.4357 19.1904 72.3847 19.01L70.7071 13.1397L74.8676 9.39551C75.1401 9.1497 75.24 8.76629 75.1226 8.41866Z" fill="#F3CD03"/>
<path d="M102.137 8.41866C102.079 8.24885 101.973 8.09964 101.831 7.98945C101.69 7.87926 101.519 7.81292 101.341 7.79861L96.1114 7.3831L93.8485 2.37409C93.7765 2.21276 93.6593 2.07573 93.511 1.97955C93.3628 1.88336 93.1899 1.83213 93.0132 1.83203C92.8365 1.83193 92.6636 1.88298 92.5153 1.979C92.3669 2.07502 92.2496 2.21192 92.1773 2.37317L89.9145 7.3831L84.6854 7.79861C84.5097 7.81253 84.3417 7.87677 84.2016 7.98364C84.0614 8.09052 83.9551 8.23551 83.8952 8.40126C83.8353 8.56701 83.8244 8.74651 83.8638 8.91828C83.9033 9.09005 83.9914 9.24682 84.1176 9.36983L87.9819 13.1369L86.6152 19.0549C86.5737 19.234 86.587 19.4215 86.6534 19.593C86.7198 19.7645 86.8362 19.9121 86.9874 20.0166C87.1387 20.1211 87.3179 20.1777 87.5018 20.1791C87.6857 20.1805 87.8657 20.1266 88.0186 20.0244L93.0129 16.6949L98.0073 20.0244C98.1635 20.1282 98.3478 20.1816 98.5353 20.1774C98.7228 20.1733 98.9045 20.1119 99.056 20.0014C99.2076 19.8909 99.3217 19.7367 99.3829 19.5595C99.4442 19.3822 99.4497 19.1904 99.3987 19.01L97.7211 13.1397L101.882 9.39551C102.154 9.1497 102.254 8.76629 102.137 8.41866Z" fill="#F3CD03"/>
<path d="M114.998 13.1384L113.631 19.0564C113.589 19.2356 113.601 19.4234 113.667 19.5953C113.734 19.7671 113.85 19.9151 114.001 20.0198C114.153 20.1245 114.332 20.1811 114.516 20.1822C114.701 20.1833 114.881 20.1288 115.033 20.0259L120.028 16.6964L125.022 20.0259C125.178 20.1297 125.363 20.1831 125.55 20.1789C125.738 20.1748 125.919 20.1134 126.071 20.0029C126.222 19.8924 126.337 19.7382 126.398 19.5609C126.459 19.3837 126.465 19.1919 126.414 19.0115L124.736 13.1412L128.897 9.39701C129.03 9.27702 129.125 9.12061 129.17 8.94712C129.216 8.77362 129.209 8.59065 129.151 8.42083C129.094 8.25102 128.988 8.1018 128.846 7.99164C128.705 7.88148 128.534 7.81521 128.355 7.80102L123.126 7.3846L120.863 2.37558C120.791 2.21429 120.674 2.07733 120.526 1.98123C120.377 1.88512 120.205 1.83398 120.028 1.83398C119.851 1.83398 119.678 1.88512 119.53 1.98123C119.382 2.07733 119.264 2.21429 119.192 2.37558L116.929 7.3846L111.7 7.8001C111.525 7.81402 111.357 7.87826 111.216 7.98514C111.076 8.09201 110.97 8.237 110.91 8.40275C110.85 8.56851 110.839 8.748 110.879 8.91977C110.918 9.09155 111.006 9.24831 111.132 9.37133L114.998 13.1384ZM117.615 9.17045C117.778 9.15755 117.936 9.10085 118.07 9.00628C118.204 8.91171 118.31 8.78276 118.378 8.63295L120.028 4.98144L121.678 8.63295C121.745 8.78276 121.852 8.91171 121.986 9.00628C122.12 9.10085 122.277 9.15755 122.441 9.17045L126.084 9.45938L123.084 12.1597C122.824 12.3945 122.72 12.7559 122.815 13.0935L123.965 17.1155L120.538 14.8307C120.387 14.7298 120.21 14.6758 120.029 14.6758C119.848 14.6758 119.671 14.7298 119.521 14.8307L115.94 17.2183L116.903 13.0485C116.938 12.8952 116.933 12.7353 116.889 12.5843C116.845 12.4333 116.762 12.2962 116.65 12.1863L113.863 9.46947L117.615 9.17045Z" fill="#F3CD03"/>
</g>
<defs>
<clipPath id="clip0_2_385">
<rect width="130.068" height="22.0136" fill="white" transform="translate(0.965942)"/>
</clipPath>
</defs>
</svg>
