<svg width="51" height="26" fill="none" xmlns="http://www.w3.org/2000/svg"><path d="M.5 13c0-7.18 5.82-13 13-13h24c7.18 0 13 5.82 13 13s-5.82 13-13 13h-24c-7.18 0-13-5.82-13-13Z" fill="#26335D"/><path d="M21 11.3h-5.725L13.5 5.75l-1.775 5.55H6l4.625 3.425-1.75 5.525 4.625-3.425 4.625 3.425-1.775-5.55L21 11.3Z" fill="#FFCE31"/><path d="M30.544 13.604v-1.536h1.344v1.536h1.008v1.284h-1.008V17h-1.344v-2.112h-3.6V13.64l3.084-5.028h1.548l-3.036 4.992h2.004Zm4.067 3.228a.888.888 0 0 1-.252-.636c0-.248.084-.456.252-.624a.867.867 0 0 1 .636-.264c.248 0 .46.088.636.264a.828.828 0 0 1 .264.624c0 .248-.088.46-.264.636a.867.867 0 0 1-.636.264.867.867 0 0 1-.636-.264Zm5.712-1.008c.743 0 1.291-.252 1.644-.756.352-.504.532-1.184.54-2.04-.2.224-.488.436-.864.636a2.704 2.704 0 0 1-1.248.288c-.753 0-1.385-.248-1.897-.744-.503-.504-.755-1.168-.755-1.992 0-.832.271-1.5.816-2.004.552-.504 1.244-.756 2.076-.756 1.343 0 2.272.6 2.784 1.8.288.688.431 1.464.431 2.328 0 .864-.092 1.584-.276 2.16-.183.576-.435 1.032-.755 1.368-.625.656-1.393.984-2.305.984a3.929 3.929 0 0 1-2.46-.852l.709-1.044c.184.16.428.304.732.432.312.128.588.192.828.192Zm.252-3.12c.487 0 .892-.132 1.211-.396.328-.272.492-.62.492-1.044 0-.432-.155-.8-.468-1.104-.312-.312-.704-.468-1.175-.468-.465 0-.849.14-1.152.42-.304.272-.456.624-.456 1.056 0 .432.136.796.407 1.092.28.296.66.444 1.14.444Z" fill="#fff"/></svg>