<svg width="132" height="23" fill="none" xmlns="http://www.w3.org/2000/svg"><g clip-path="url(#a)" fill="#F3CD03"><path d="M21.097 8.419a.918.918 0 0 0-.797-.62l-5.229-.416-2.262-5.009a.916.916 0 0 0-1.672 0l-2.262 5.01-5.23.415a.917.917 0 0 0-.567 1.57l3.864 3.768-1.367 5.918a.917.917 0 0 0 1.404.97l4.994-3.33 4.994 3.33a.917.917 0 0 0 1.392-1.015l-1.678-5.87 4.16-3.744a.919.919 0 0 0 .256-.977ZM48.112 8.419a.918.918 0 0 0-.797-.62l-5.229-.416-2.262-5.009a.915.915 0 0 0-1.672 0l-2.263 5.01-5.229.415a.917.917 0 0 0-.567 1.57l3.864 3.768-1.367 5.918a.917.917 0 0 0 1.404.97l4.994-3.33 4.994 3.33a.917.917 0 0 0 1.392-1.015l-1.678-5.87 4.16-3.744a.919.919 0 0 0 .256-.977ZM75.123 8.419a.918.918 0 0 0-.797-.62l-5.229-.416-2.262-5.009a.916.916 0 0 0-1.672 0l-2.262 5.01-5.23.415a.917.917 0 0 0-.567 1.57l3.864 3.768-1.367 5.918a.917.917 0 0 0 1.404.97l4.994-3.33 4.994 3.33a.917.917 0 0 0 1.392-1.015l-1.678-5.87 4.16-3.744a.919.919 0 0 0 .256-.977ZM102.137 8.419a.918.918 0 0 0-.796-.62l-5.23-.416-2.263-5.009a.914.914 0 0 0-1.67 0l-2.263 5.01-5.23.415a.917.917 0 0 0-.567 1.57l3.864 3.768-1.367 5.918a.917.917 0 0 0 1.404.97l4.994-3.33 4.994 3.33A.917.917 0 0 0 99.4 19.01l-1.678-5.87 4.161-3.744a.92.92 0 0 0 .255-.977ZM114.998 13.138l-1.367 5.918a.919.919 0 0 0 .37.964.917.917 0 0 0 1.032.006l4.995-3.33 4.994 3.33a.918.918 0 0 0 1.392-1.014l-1.678-5.87 4.161-3.745a.916.916 0 0 0-.051-1.405.915.915 0 0 0-.491-.191l-5.229-.416-2.263-5.01a.915.915 0 0 0-1.671 0l-2.263 5.01-5.229.415a.923.923 0 0 0-.79.603.914.914 0 0 0 .222.969l3.866 3.766Zm2.617-3.968a.916.916 0 0 0 .763-.537l1.65-3.652 1.65 3.652a.915.915 0 0 0 .763.537l3.643.29-3 2.7a.921.921 0 0 0-.269.934l1.15 4.022-3.427-2.285a.916.916 0 0 0-1.017 0l-3.581 2.387.963-4.17a.924.924 0 0 0-.253-.862l-2.787-2.717 3.752-.299Z"/></g><defs><clipPath id="a"><path fill="#fff" transform="translate(.966)" d="M0 0h130.068v22.014H0z"/></clipPath></defs></svg>